<svg id="Layer_1" data-name="Layer 1" xmlns="http://www.w3.org/2000/svg" xmlns:xlink="http://www.w3.org/1999/xlink" viewBox="0 0 1050.58 1053.32"><defs><style>.cls-1{fill:url(#linear-gradient);}.cls-2{fill:url(#linear-gradient-2);}</style><linearGradient id="linear-gradient" x1="13" y1="539.34" x2="1063.58" y2="539.34" gradientUnits="userSpaceOnUse"><stop offset="0" stop-color="#ff9750"/><stop offset="1" stop-color="#ff3c6e"/></linearGradient><linearGradient id="linear-gradient-2" x1="923.56" y1="539.34" x2="152" y2="539.34" xlink:href="#linear-gradient"/></defs><path class="cls-1" d="M1063.58,593.37C1036.52,858.86,812.28,1066,539.66,1066,248.77,1066,13,830.2,13,539.34S248.77,12.68,539.66,12.68c272.62,0,496.86,207.14,523.92,472.62H593.7a54,54,0,1,0,0,108.07Z" transform="translate(-13 -12.68)"/><path class="cls-2" d="M593.7,593.37H923.56C897.27,781.89,735.41,927,539.66,927,325.57,927,152,753.43,152,539.34S325.57,151.7,539.66,151.7c195.75,0,357.61,145.09,383.9,333.6H593.7a54,54,0,1,0,0,108.07Z" transform="translate(-13 -12.68)"/></svg>