<svg xmlns="http://www.w3.org/2000/svg" xmlns:xlink="http://www.w3.org/1999/xlink" width="60" height="60.001" viewBox="0 0 60 60.001">
  <defs>
    <linearGradient id="linear-gradient" x1="0.5" x2="0.5" y2="1" gradientUnits="objectBoundingBox">
      <stop offset="0" stop-color="#ffa54b"/>
      <stop offset="1" stop-color="#ff3e6e"/>
    </linearGradient>
  </defs>
  <path id="Icon_simple-git" data-name="Icon simple-git" d="M58.866,27.326l-26.2-26.2a3.873,3.873,0,0,0-5.47,0L21.77,6.568l6.9,6.9a4.6,4.6,0,0,1,5.818,5.853l6.645,6.65a4.593,4.593,0,1,1-2.76,2.608l-6.223-6.19V38.7a4.6,4.6,0,1,1-5.3.875,4.709,4.709,0,0,1,1.513-1.015V22.088a4.6,4.6,0,0,1-2.49-6.025L19.09,9.25,1.125,27.2a3.89,3.89,0,0,0,0,5.473l26.2,26.193a3.863,3.863,0,0,0,5.465,0L58.866,32.793a3.861,3.861,0,0,0,0-5.468" transform="translate(0 0)" fill="url(#linear-gradient)"/>
</svg>
